<svg width="28" height="28" viewBox="0 0 28 28" fill="none" xmlns="http://www.w3.org/2000/svg">
<path d="M4.8125 24.5C4.00027 24.5 3.22132 24.1773 2.64699 23.603C2.07266 23.0287 1.75 22.2497 1.75 21.4375V17.0625C1.75 16.7144 1.88828 16.3806 2.13442 16.1344C2.38056 15.8883 2.7144 15.75 3.0625 15.75C3.4106 15.75 3.74444 15.8883 3.99058 16.1344C4.23672 16.3806 4.375 16.7144 4.375 17.0625V21.4375C4.375 21.679 4.571 21.875 4.8125 21.875H23.1875C23.3035 21.875 23.4148 21.8289 23.4969 21.7469C23.5789 21.6648 23.625 21.5535 23.625 21.4375V17.0625C23.625 16.7144 23.7633 16.3806 24.0094 16.1344C24.2556 15.8883 24.5894 15.75 24.9375 15.75C25.2856 15.75 25.6194 15.8883 25.8656 16.1344C26.1117 16.3806 26.25 16.7144 26.25 17.0625V21.4375C26.25 22.2497 25.9273 23.0287 25.353 23.603C24.7787 24.1773 23.9997 24.5 23.1875 24.5H4.8125Z" fill="#396AFF"/>
<path d="M12.6875 13.4558V3.5C12.6875 3.1519 12.8258 2.81806 13.0719 2.57192C13.3181 2.32578 13.6519 2.1875 14 2.1875C14.3481 2.1875 14.6819 2.32578 14.9281 2.57192C15.1742 2.81806 15.3125 3.1519 15.3125 3.5V13.4558L18.76 10.01C18.8818 9.8882 19.0264 9.79158 19.1855 9.72566C19.3447 9.65974 19.5153 9.62582 19.6875 9.62582C19.8598 9.62582 20.0303 9.65974 20.1895 9.72566C20.3486 9.79158 20.4932 9.8882 20.615 10.01C20.7368 10.1318 20.8334 10.2764 20.8993 10.4355C20.9653 10.5947 20.9992 10.7652 20.9992 10.9375C20.9992 11.1098 20.9653 11.2803 20.8993 11.4395C20.8334 11.5986 20.7368 11.7432 20.615 11.865L14.9275 17.5525C14.6814 17.7983 14.3478 17.9363 14 17.9363C13.6522 17.9363 13.3186 17.7983 13.0725 17.5525L7.38501 11.865C7.26321 11.7432 7.16659 11.5986 7.10067 11.4395C7.03475 11.2803 7.00082 11.1098 7.00082 10.9375C7.00082 10.7652 7.03475 10.5947 7.10067 10.4355C7.16659 10.2764 7.26321 10.1318 7.38501 10.01C7.50681 9.8882 7.65141 9.79158 7.81055 9.72566C7.96969 9.65974 8.14025 9.62582 8.31251 9.62582C8.48476 9.62582 8.65533 9.65974 8.81447 9.72566C8.97361 9.79158 9.11821 9.8882 9.24001 10.01L12.6875 13.4558Z" fill="#396AFF"/>
</svg>
