<svg width="20" height="20" viewBox="0 0 20 20" fill="none" xmlns="http://www.w3.org/2000/svg">
<path d="M15 11.667L15.9596 10.7074C16.3501 10.3169 16.3501 9.68374 15.9596 9.29322L15 8.33366" stroke="#F45B69" stroke-width="1.5" stroke-linecap="round" stroke-linejoin="round"/>
<path d="M15.833 10L10.833 10M3.33301 14.3886V6.05527M13.333 14.3886C13.333 15.3091 12.5868 16.0553 11.6663 16.0553H8.33301M13.333 6.05527C13.333 5.1348 12.5868 4.38861 11.6663 4.38861H8.33301M4.07517 16.5501L5.74184 17.6612C6.84943 18.3996 8.33301 17.6056 8.33301 16.2744V4.16947C8.33301 2.83831 6.84943 2.04432 5.74184 2.78272L4.07517 3.89383C3.61151 4.20294 3.33301 4.72333 3.33301 5.28058V15.1633C3.33301 15.7206 3.61151 16.2409 4.07517 16.5501Z" stroke="#F45B69" stroke-width="1.5" stroke-linecap="round"/>
</svg>
