<svg width="24" height="25" viewBox="0 0 24 25" fill="#7152F3" xmlns="http://www.w3.org/2000/svg">
<path fill-rule="evenodd" clip-rule="evenodd" d="M9.75 8.5C9.75 7.25736 10.7574 6.25 12 6.25C13.2426 6.25 14.25 7.25736 14.25 8.5C14.25 9.74264 13.2426 10.75 12 10.75C10.7574 10.75 9.75 9.74264 9.75 8.5ZM12 4.75C9.92893 4.75 8.25 6.42893 8.25 8.5C8.25 10.5711 9.92893 12.25 12 12.25C14.0711 12.25 15.75 10.5711 15.75 8.5C15.75 6.42893 14.0711 4.75 12 4.75ZM6.75 16.5C6.75 16.1087 7.08671 15.5525 8.09277 15.0495C9.05397 14.5689 10.4343 14.25 12 14.25C13.5657 14.25 14.946 14.5689 15.9072 15.0495C16.9133 15.5525 17.25 16.1087 17.25 16.5C17.25 16.8913 16.9133 17.4475 15.9072 17.9505C14.946 18.4311 13.5657 18.75 12 18.75C10.4343 18.75 9.05397 18.4311 8.09277 17.9505C7.08671 17.4475 6.75 16.8913 6.75 16.5ZM12 12.75C10.252 12.75 8.63232 13.1027 7.42195 13.7079C6.25643 14.2906 5.25 15.2345 5.25 16.5C5.25 17.7655 6.25643 18.7094 7.42195 19.2921C8.63232 19.8973 10.252 20.25 12 20.25C13.748 20.25 15.3677 19.8973 16.5781 19.2921C17.7436 18.7094 18.75 17.7655 18.75 16.5C18.75 15.2345 17.7436 14.2906 16.5781 13.7079C15.3677 13.1027 13.748 12.75 12 12.75ZM6.38165 13.519C3.91199 13.6713 2 14.7241 2 16.0001C2 17.0521 3.29949 17.9523 5.13963 18.3213C4.72843 17.7645 4.5 17.1483 4.5 16.5001C4.5 15.3567 5.21076 14.3129 6.38165 13.519ZM19.5001 16.5001C19.5001 17.1483 19.2716 17.7645 18.8604 18.3213C20.7006 17.9523 22.0001 17.0521 22.0001 16.0001C22.0001 14.7241 20.0881 13.6713 17.6184 13.519C18.7893 14.3129 19.5001 15.3567 19.5001 16.5001ZM15.7183 11.0354C16.2115 10.3134 16.5 9.44039 16.5 8.5C16.5 8.18794 16.4682 7.8833 16.4077 7.58914C16.5949 7.5312 16.7938 7.5 17 7.5C18.1045 7.5 19 8.39543 19 9.5C19 10.6046 18.1045 11.5 17 11.5C16.5123 11.5 16.0653 11.3254 15.7183 11.0354ZM7 7.5C7.20619 7.5 7.40509 7.5312 7.59223 7.58914C7.53176 7.8833 7.5 8.18794 7.5 8.5C7.5 9.44039 7.78845 10.3134 8.28171 11.0354C7.93462 11.3254 7.4877 11.5 7 11.5C5.89543 11.5 5 10.6046 5 9.5C5 8.39543 5.89543 7.5 7 7.5Z" fill="#7152F3"/>
</svg>
