<svg width="25" height="25" viewBox="0 0 25 25" fill="none" xmlns="http://www.w3.org/2000/svg">
<path d="M13.5418 22.8643C13.1995 22.899 12.8522 22.9163 12.5002 22.9163C6.74704 22.9163 2.0835 18.2528 2.0835 12.4997C2.0835 6.74655 6.74704 2.08301 12.5002 2.08301C18.2533 2.08301 22.9168 6.74655 22.9168 12.4997C22.9168 12.8518 22.8995 13.199 22.8647 13.5413" stroke="#16151C" stroke-width="1.5625" stroke-linecap="round" stroke-linejoin="round"/>
<path d="M7.8125 17.7077C9.27292 16.1775 11.4802 15.5244 13.5417 15.8264M15.099 9.89518C15.099 11.3327 13.9323 12.4994 12.4917 12.4994C12.1493 12.4999 11.8102 12.4329 11.4938 12.3023C11.1774 12.1717 10.8898 11.98 10.6475 11.7381C10.4053 11.4962 10.2131 11.2089 10.082 10.8927C9.95083 10.5765 9.88333 10.2375 9.88333 9.89518C9.88333 8.45768 11.05 7.29102 12.4917 7.29102C12.8339 7.29061 13.1729 7.35766 13.4892 7.48835C13.8055 7.61904 14.093 7.81079 14.3351 8.05265C14.5773 8.29451 14.7694 8.58173 14.9004 8.89789C15.0315 9.21405 15.099 9.55294 15.099 9.89518Z" stroke="#16151C" stroke-width="1.5625" stroke-linecap="round" stroke-linejoin="round"/>
<path d="M19.2708 22.9167C21.2844 22.9167 22.9167 21.2844 22.9167 19.2708C22.9167 17.2573 21.2844 15.625 19.2708 15.625C17.2573 15.625 15.625 17.2573 15.625 19.2708C15.625 21.2844 17.2573 22.9167 19.2708 22.9167Z" stroke="#16151C" stroke-width="1.5625" stroke-linecap="round" stroke-linejoin="round"/>
</svg>
